<svg width="75" height="79" viewBox="0 0 75 79" xmlns="http://www.w3.org/2000/svg"><path d="M37.47 63.88c-2.87 0-5.75.01-8.63 0-1.6 0-2.23-.6-2.17-2.22.053-2.006-.456-3.988-1.47-5.72-1.11-1.99-2.32-3.92-3.47-5.89-1.85-3.15-3.43-6.41-3.73-10.13-.67-8.18 2.48-14.59 9.38-18.83 11.63-7.15 26.65-.07 29.03 13.49.675 3.732.143 7.582-1.52 10.99-1.22 2.55-2.65 4.99-3.99 7.48-1.22 2.26-2.46 4.52-2.66 7.16-.04.52-.05 1.03-.06 1.55-.02 1.52-.58 2.11-2.08 2.12-2.87.01-5.75 0-8.63 0zm7.21-3.57c.27-3.7 1.96-6.84 3.72-9.95.92-1.468 1.753-2.987 2.5-4.55.996-2.01 1.72-4.147 2.15-6.35.73-6.602-2.72-12.962-8.652-15.95-5.932-2.987-13.096-1.972-17.966 2.545-4.87 4.518-6.417 11.586-3.882 17.725 1.27 2.773 2.726 5.455 4.36 8.03 1.52 2.65 3 5.31 3.24 8.5h14.53zm-7.25 7.39c2.46 0 4.92-.01 7.38 0 1.3 0 2.1.65 2.12 1.71-.006.52-.237 1.014-.634 1.352-.397.337-.92.486-1.436.408H30.01c-1.31 0-2.05-.65-2.04-1.76.01-1.11.74-1.71 2.08-1.71 2.46-.01 4.92 0 7.38 0zm0 10.43c-1.53 0-3.06.02-4.59 0-.637.037-1.243-.28-1.577-.823-.334-.543-.34-1.227-.02-1.778.32-.552.92-.882 1.557-.86 3.09-.02 6.18-.02 9.27 0 .47-.023.927.144 1.27.465.343.32.54.766.55 1.235 0 .486-.2.952-.554 1.285-.354.333-.83.505-1.316.475-1.53.02-3.06.01-4.59 0zm-26-12.15c-.498-.32-.947-.71-1.33-1.16-.402-.664-.267-1.522.32-2.03 1.62-1.73 3.25-3.45 4.88-5.18.4-.42.79-.84 1.2-1.25.94-.96 1.88-1.07 2.68-.32.8.75.73 1.81-.2 2.79-1.93 2.05-3.88 4.1-5.82 6.14-.116.153-.254.288-.41.4-.35.19-.73.34-1.32.61zm53.78-54.41c-.228.525-.517 1.022-.86 1.48-2.03 2.09-4.077 4.16-6.14 6.21-.315.396-.788.632-1.294.646-.505.013-.99-.198-1.326-.576-.338-.355-.51-.836-.476-1.325.034-.49.272-.94.656-1.245 2.04-2.08 4.1-4.14 6.15-6.21.467-.615 1.314-.794 1.99-.42.5.415.938.9 1.3 1.44zM39.03 6.14c0 1.35.02 2.7 0 4.05.096.687-.217 1.367-.8 1.742-.586.374-1.334.374-1.92 0-.583-.375-.896-1.055-.8-1.742-.01-2.74-.02-5.47 0-8.21-.08-.68.237-1.346.817-1.71.58-.365 1.318-.363 1.896.005.577.368.892 1.035.807 1.715.03 1.38 0 2.76 0 4.15zM19.82 18.48c-.39.518-.84.988-1.34 1.4-.647.363-1.463.192-1.91-.4-1.32-1.3-2.62-2.63-3.93-3.94-.67-.69-1.36-1.35-2.02-2.05-.49-.433-.7-1.105-.54-1.74.16-.636.66-1.13 1.3-1.278.637-.15 1.305.07 1.73.568 1.97 1.96 3.94 3.93 5.87 5.94.338.465.62.97.84 1.5zm37.05 37c.518.234 1.008.526 1.46.87 1.99 1.95 3.953 3.927 5.89 5.93.373.318.594.778.61 1.267.014.49-.178.963-.53 1.303-.34.35-.814.54-1.302.517-.488-.023-.943-.255-1.248-.637-1.97-1.96-3.92-3.95-5.88-5.93-.628-.463-.81-1.324-.42-2 .415-.5.892-.943 1.42-1.32zm12.24-19.33c1.34 0 2.68-.02 4.01 0 .485-.046.966.118 1.322.45.356.334.552.803.538 1.29.003.487-.2.953-.557 1.284-.357.33-.837.496-1.323.456-2.67.01-5.35.01-8.02 0-.666.07-1.314-.247-1.668-.816-.354-.57-.352-1.29.006-1.857.357-.567 1.006-.88 1.672-.807 1.34-.01 2.68 0 4.02 0zM5.87 39.64c-1.31 0-2.62.01-3.93-.01-.666.07-1.314-.247-1.668-.816-.354-.57-.352-1.29.006-1.857.357-.567 1.006-.88 1.672-.807 2.62-.01 5.24-.01 7.86 0 .487-.05.97.114 1.33.447.357.333.554.804.54 1.293.006.488-.195.956-.553 1.288-.36.33-.84.496-1.327.452-1.3.02-2.61.01-3.93.01zm19.63-2c-.04-4.73 2.755-9.023 7.094-10.903 4.34-1.88 9.383-.98 12.806 2.283.405.28.674.714.743 1.2.068.488-.07.98-.383 1.36-.316.418-.807.666-1.33.674-.524.008-1.022-.226-1.35-.634-1.9-1.83-4.552-2.653-7.153-2.22-2.6.434-4.844 2.073-6.047 4.42-1.603 3.02-1.164 6.718 1.1 9.28 1.17 1.23.99 2.54.28 3.11-.92.74-1.91.47-3-.84-1.817-2.162-2.797-4.906-2.76-7.73z" fill="#1DBBAE" fill-rule="nonzero"/></svg>