<svg xmlns="http://www.w3.org/2000/svg" width="484.031" height="484" viewBox="0 0 484.031 484"><defs><style>.cls-1 { fill: #1dbbae; fill-rule: evenodd; }</style></defs><path id="carte_complete" data-name="carte complete" class="cls-1" d="M242.4 0c133.86.182 244.523 110.1 241.573 247.254-2.855 132.75-111.8 237.5-243.18 236.735C104.426 483.2-3.5 370.226.083 235.55 3.546 105.308 110.63-.194 242.4 0zM15.316 241.614c-.274 123.353 99.27 226.986 226.744 227.05 126.415.06 226.4-102.453 226.656-226.106.258-124.545-99.78-225.24-222.788-227.2C117.92 13.308 15.44 116.7 15.316 241.614zm424.145-.272c0 108.606-88.855 197.282-197.206 196.808-109.1-.477-196.444-88.52-196.392-197.966C45.912 132.96 134.7 44.514 242.205 44.6c109.037.087 197.255 88.076 197.255 196.742zM242.72 59.818C142.6 60.056 62.32 140.635 61.183 239.4 60.04 338.635 140.25 421.37 239.16 422.83c100.652 1.488 183.52-78.585 184.988-178.5a181.88 181.88 0 0 0-181.43-184.512zm-88.474 268.89c3.793-7.46 7.376-14.553 11-21.628 12.02-23.478 24.086-46.93 36.02-70.453 1.132-2.23 2.315-3.137 4.886-3.093 9.7.168 19.4.068 29.535.068 0-5.81-.038-11.376.012-16.94.044-4.893-1.436-10.757.75-14.4 2.1-3.5 8.015-4.732 12.3-6.875q39.22-19.642 78.46-39.243c1.095-.547 2.22-1.03 4.078-1.892-4.093 8.034-7.828 15.39-11.585 22.735-11.806 23.074-23.67 46.117-35.363 69.246-1.34 2.648-2.836 3.532-5.754 3.457-8.23-.216-16.467-.083-24.7-.068-1.226 0-2.452.1-3.932.17-.067 1.46-.17 2.684-.174 3.907-.014 8.348.066 16.7-.09 25.043a4.58 4.58 0 0 1-1.833 3.453q-46.05 23.21-92.222 46.182a8.673 8.673 0 0 1-1.386.33zm96.668-94.446c7.326 0 14.27.07 21.21-.1.756-.02 1.71-1.29 2.18-2.187 3.868-7.38 7.653-14.805 11.443-22.226 3.455-6.764 6.885-13.54 10.415-20.49a3.29 3.29 0 0 0-.928.01q-21.3 10.606-42.572 21.28a3.26 3.26 0 0 0-1.673 2.206c-.127 7.053-.075 14.11-.075 21.506zm-16.612 14.67c-6.75 0-13.025.092-19.3-.05-2.18-.05-3.243.83-4.174 2.67-6.69 13.228-13.478 26.406-20.216 39.61-.417.817-.67 1.72-1.29 3.347 15.07-7.543 29.34-14.666 43.57-21.866a2.824 2.824 0 0 0 1.346-2.035c.105-7.06.064-14.122.064-21.678zm-100.247 0c-7.192 0-14.384.026-21.576-.01-5.03-.026-8.392-3-8.488-7.415-.094-4.354 3.2-7.8 8.176-7.842q21.744-.2 43.493.007c5.094.052 8.12 3.3 8.047 7.865s-3.2 7.356-8.42 7.384c-7.075.04-14.153.01-21.23.01zm216.052 0c-7.08 0-14.157.02-21.235-.008-5.105-.02-8.448-2.857-8.65-7.254-.2-4.454 3.208-7.97 8.36-8.014q21.575-.186 43.152 0c5.248.046 8.376 3.367 8.22 8.064-.148 4.5-3.32 7.18-8.613 7.2-7.076.03-14.154.01-21.232.01zM249.45 344.7c0 7.422.11 14.845-.044 22.263a7.383 7.383 0 0 1-6.506 7.23 7.51 7.51 0 0 1-8.138-4.883 10.145 10.145 0 0 1-.537-3.344c-.035-14.388-.074-28.776 0-43.162.027-5.033 3.18-8.306 7.616-8.315s7.57 3.24 7.647 8.287c.11 7.307.028 14.616.028 21.923h-.067zm1.45-208.675c0 7.078.044 14.157-.015 21.236-.042 5.09-3 8.325-7.49 8.374-4.65.05-7.7-3.27-7.7-8.516q-.034-21.408 0-42.814c.01-4.965 3.11-8.392 7.5-8.446 4.41-.055 7.642 3.323 7.688 8.247.067 7.306.017 14.614.017 21.92z"/></svg>