<svg width="81" height="120" viewBox="0 0 81 120" xmlns="http://www.w3.org/2000/svg"><path d="M70.5 62.8c-7.73 7.568-14.35 16.194-19.66 25.62-1.07-10.44-1.93-20.9-2.79-31.33-.76-9.11-1.35-18.23-1.97-27.35-.31-4.56-.637-9.123-.98-13.69-.33-4.5-.29-9.56-1.75-13.86C42.938.886 41.728 0 40.36 0s-2.578.886-2.99 2.19c-1.3 4.35-1.07 9.36-1.15 13.86-.08 4.56-.097 9.123-.05 13.69.1 9.33.44 18.68.83 28.01.58 14.15 1.66 28.26 2.71 42.37-2.6-4.54-5.42-8.98-8.29-13.37-6.29-9.66-12.94-20.05-21.26-28.11-4.57-4.44-13.03 1.44-9.15 7 6.44 9.23 14.25 17.53 20.97 26.58 3.36 4.54 6.53 9.21 9.75 13.85 2.7 3.89 5.74 10.37 10.32 12.29.376.154.775.245 1.18.27 1.734 1.315 3.996 1.712 6.074 1.065s3.715-2.258 4.396-4.325c5.9-15.998 14.587-30.824 25.66-43.79 5.15-6.02-3.03-14.48-8.86-8.78z" fill="#FFF" fill-rule="nonzero"/></svg>