<svg width="202" height="203" viewBox="0 0 202 203" xmlns="http://www.w3.org/2000/svg"><g fill="none" fill-rule="evenodd"><path d="M183.132 107.5c.168-2.174 2.868-4.264 2.868-6.473 0-2.21-2.7-4.3-2.868-6.466-.168-2.167 2.167-4.688 1.832-6.837-.335-2.15-3.34-3.82-3.838-5.94-.497-2.12 1.407-4.963.737-7.035-.67-2.07-3.898-3.245-4.73-5.263-.833-2.017.598-5.12-.384-7.065-.982-1.946-4.353-2.592-5.497-4.448-1.144-1.856-.198-5.156-1.48-6.922-1.28-1.766-4.705-1.868-6.13-3.538-1.425-1.67-.994-5.054-2.54-6.586-1.543-1.533-4.932-1.12-6.585-2.545-1.652-1.424-1.76-4.83-3.532-6.124-1.773-1.294-5.048-.336-6.922-1.485-1.874-1.15-2.49-4.502-4.448-5.496-1.958-.993-5.03.46-7.065-.383s-3.167-4.052-5.256-4.73c-2.09-.675-4.91 1.23-7.054.72-2.143-.51-3.766-3.503-5.94-3.844-2.172-.34-4.633 2.006-6.837 1.838-2.203-.168-4.25-2.874-6.442-2.874-2.19 0-4.304 2.706-6.47 2.874-2.17.168-4.684-2.18-6.833-1.838-2.15.34-3.826 3.335-5.94 3.844-2.113.51-4.963-1.413-7.04-.743-2.078.67-3.246 3.898-5.258 4.736-2.012.84-5.12-.598-7.066.378-1.946.976-2.574 4.353-4.448 5.503-1.874 1.15-5.156.186-6.922 1.48-1.766 1.292-1.88 4.723-3.544 6.13-1.665 1.407-5.054.988-6.586 2.54-1.533 1.55-1.12 4.932-2.54 6.585-1.418 1.652-4.843 1.766-6.13 3.538-1.287 1.773-.347 5.09-1.497 6.94-1.15 1.85-4.503 2.496-5.496 4.448-.993 1.952.462 5.036-.377 7.07-.838 2.037-4.083 3.17-4.736 5.258-.652 2.09 1.252 4.898.743 7.04-.51 2.145-3.497 3.762-3.844 5.94-.347 2.18 2.006 4.635 1.838 6.84-.168 2.202-2.874 4.256-2.874 6.46 0 2.202 2.7 4.298 2.868 6.47.168 2.175-2.173 4.683-1.832 6.833.34 2.15 3.335 3.82 3.844 5.94.51 2.12-1.413 4.963-.737 7.04.677 2.078 3.892 3.24 4.73 5.258.84 2.017-.598 5.12.378 7.065.976 1.946 4.347 2.586 5.497 4.454 1.15 1.868.192 5.15 1.48 6.922 1.286 1.772 4.705 1.862 6.124 3.532 1.42 1.67.995 5.066 2.546 6.586 1.55 1.52 4.933 1.12 6.586 2.54 1.652 1.418 1.76 4.83 3.532 6.124 1.773 1.293 5.06.34 6.922 1.485s2.496 4.51 4.448 5.503c1.952.994 5.048-.46 7.065.378 2.017.84 3.167 4.054 5.262 4.737 2.096.682 4.892-1.252 7.036-.743 2.143.51 3.76 3.503 5.94 3.844 2.178.34 4.627-2.006 6.83-1.832 2.204.174 4.276 2.886 6.503 2.886 2.228 0 4.294-2.7 6.46-2.868 2.17-.168 4.69 2.173 6.84 1.832 2.148-.34 3.82-3.335 5.938-3.844 2.12-.51 4.958 1.413 7.03.743 2.07-.67 3.245-3.898 5.263-4.736 2.018-.84 5.114.597 7.066-.38 1.952-.975 2.58-4.35 4.448-5.5 1.868-1.15 5.15-.193 6.916-1.48s1.868-4.706 3.538-6.13c1.67-1.426 5.06-.99 6.586-2.54 1.527-1.55 1.114-4.94 2.533-6.586 1.42-1.646 4.844-1.766 6.13-3.538 1.288-1.773.336-5.048 1.48-6.922 1.144-1.874 4.503-2.49 5.502-4.448 1-1.958-.462-5.036.377-7.066.838-2.03 4.053-3.167 4.736-5.262.682-2.096-1.258-4.898-.737-7.042.52-2.143 3.497-3.76 3.838-5.94.34-2.178-2.006-4.64-1.832-6.837z" fill="#1DBBAE"/><path d="M197.626 108.646c.197-2.557 3.374-5.015 3.374-7.614 0-2.6-3.177-5.058-3.374-7.608-.197-2.55 2.55-5.515 2.155-8.044-.393-2.53-3.93-4.494-4.514-6.988-.584-2.493 1.656-5.84.867-8.276-.79-2.438-4.586-3.818-5.565-6.192-.98-2.374.704-6.023-.45-8.312-1.156-2.29-5.122-3.05-6.467-5.234-1.345-2.183-.232-6.065-1.74-8.142-1.507-2.078-5.536-2.198-7.212-4.163-1.677-1.966-1.17-5.946-2.987-7.75-1.816-1.802-5.803-1.316-7.747-2.993-1.944-1.676-2.07-5.684-4.156-7.206-2.085-1.52-5.938-.394-8.143-1.746-2.205-1.353-2.93-5.298-5.234-6.467-2.303-1.168-5.917.544-8.312-.45-2.395-.993-3.726-4.768-6.184-5.564-2.46-.796-5.776 1.444-8.298.845-2.522-.598-4.43-4.12-6.988-4.52-2.557-.403-5.452 2.358-8.044 2.16-2.592-.196-5-3.38-7.58-3.38-2.577 0-5.064 3.184-7.614 3.38-2.55.198-5.508-2.563-8.037-2.16-2.53.4-4.5 3.922-6.988 4.52-2.486.6-5.84-1.662-8.283-.873-2.445.79-3.818 4.586-6.185 5.572-2.367.985-6.023-.705-8.312.443-2.29 1.148-3.03 5.12-5.234 6.473-2.203 1.353-6.064.22-8.142 1.74-2.078 1.522-2.21 5.558-4.17 7.213-1.958 1.655-5.945 1.162-7.748 2.986-1.803 1.824-1.317 5.804-2.987 7.748-1.67 1.944-5.698 2.078-7.213 4.163-1.514 2.085-.408 5.988-1.76 8.164-1.353 2.178-5.298 2.94-6.467 5.235-1.17 2.296.542 5.924-.444 8.32-.987 2.394-4.805 3.725-5.573 6.184-.767 2.457 1.473 5.76.874 8.282-.598 2.522-4.113 4.424-4.52 6.988-.41 2.564 2.358 5.452 2.16 8.044-.196 2.592-3.38 5.008-3.38 7.6 0 2.593 3.177 5.058 3.374 7.615.197 2.556-2.557 5.508-2.155 8.036.4 2.53 3.922 4.494 4.52 6.988.6 2.494-1.662 5.84-.866 8.284.796 2.444 4.58 3.81 5.565 6.184.985 2.374-.705 6.023.443 8.312 1.148 2.29 5.114 3.043 6.466 5.24 1.352 2.2.225 6.06 1.74 8.144 1.514 2.085 5.536 2.19 7.205 4.156 1.67 1.965 1.17 5.96 2.994 7.748 1.823 1.79 5.803 1.317 7.747 2.987 1.944 1.668 2.07 5.683 4.156 7.205 2.085 1.52 5.952.4 8.143 1.747 2.19 1.345 2.937 5.304 5.234 6.473 2.296 1.17 5.938-.542 8.312.444 2.374.985 3.726 4.768 6.19 5.57 2.467.804 5.756-1.47 8.278-.873 2.522.6 4.424 4.12 6.988 4.523 2.564.4 5.445-2.36 8.037-2.156 2.592.204 5.03 3.395 7.65 3.395s5.05-3.178 7.6-3.375c2.55-.197 5.516 2.557 8.044 2.156 2.528-.4 4.493-3.923 6.987-4.522 2.494-.598 5.832 1.663 8.27.874 2.437-.79 3.817-4.586 6.19-5.572 2.375-.986 6.017.705 8.313-.444 2.297-1.148 3.036-5.12 5.234-6.473 2.198-1.353 6.058-.225 8.136-1.74 2.078-1.514 2.197-5.537 4.163-7.213 1.965-1.676 5.952-1.162 7.748-2.987 1.797-1.824 1.31-5.81 2.98-7.748 1.67-1.937 5.7-2.078 7.214-4.163 1.514-2.085.394-5.938 1.74-8.143 1.345-2.206 5.297-2.93 6.473-5.235 1.176-2.303-.542-5.924.444-8.31.987-2.39 4.77-3.728 5.573-6.193.803-2.466-1.48-5.762-.867-8.284.613-2.522 4.114-4.424 4.515-6.988.403-2.564-2.358-5.46-2.154-8.044z" stroke="#1DBBAE" stroke-width="2"/><path d="M120.48 134.942c-.488 3.33-.957 6.49-1.453 9.807-2.57-1.89-4.987-3.67-7.605-5.592-1.872 7.938-6.63 14.183-10.47 21.112-3.87-6.987-8.684-13.274-10.45-21.356-2.494 1.87-4.816 3.605-7.338 5.49-.45-3.27-.88-6.336-1.337-9.585-6.773 4.38-14.463 5.643-22.116 7.73 2.16-7.54 3.144-15.203 7.768-21.827l-9.973-1.495c1.958-2.6 3.783-5.01 5.798-7.696-8.043-1.736-14.34-6.58-21.303-10.487 3.458-2.11 6.678-4.327 10.126-6.102 3.45-1.775 7.136-3.118 10.88-4.718-1.623-2.172-3.374-4.52-5.253-7.043 3.267-.453 6.334-.876 9.706-1.345-4.625-6.65-5.704-14.385-7.854-22.087 7.538 2.056 15.113 3.297 21.82 7.566.496-3.323.965-6.475 1.452-9.793 2.59 1.903 5.015 3.683 7.614 5.594 1.862-7.94 6.64-14.19 10.46-21.117 3.888 6.998 8.713 13.32 10.47 21.353 2.494-1.872 4.806-3.597 7.318-5.483.46 3.253.885 6.305 1.28 9.153 3.62-1.455 7.156-3.077 10.814-4.286 3.66-1.21 7.423-1.99 11.35-3.013-2.093 7.512-3.2 15.125-7.605 21.84l9.925 1.47c-1.882 2.565-3.66 4.977-5.636 7.67 7.937 1.753 14.166 6.526 21.13 10.446-6.993 3.837-13.212 8.79-21.4 10.358 1.94 2.603 3.68 4.93 5.56 7.452l-9.705 1.354c4.662 6.72 5.732 14.475 7.843 22.12-7.537-2.076-15.084-3.353-21.82-7.492zm-22.996-26.43c.47 6.908-.764 13.84 3.344 19.912 4.137-6.1 2.828-13.088 3.363-19.897 5.064 4.31 8.876 9.948 15.81 11.61-1.843-6.84-7.393-10.72-11.654-15.757 6.82-.567 13.795.742 19.957-3.378-6.18-4.072-13.155-2.814-19.966-3.367 4.308-5.05 9.83-8.934 11.664-15.762-6.963 1.682-10.765 7.386-15.838 11.615-.468-6.885.774-13.817-3.334-19.89-4.136 6.1-2.837 13.087-3.363 19.898-5.072-4.313-8.874-9.95-15.81-11.61.896 3.202 2.573 6.132 4.882 8.526 2.178 2.395 4.45 4.704 6.85 7.228-6.908.546-13.872-.708-20.034 3.375 6.18 4.086 13.155 2.812 19.957 3.373-4.31 5.046-9.83 8.935-11.665 15.77 6.955-1.704 10.767-7.344 15.84-11.647zm3.334 43.746c3.272-4.71 5.616-9.998 6.907-15.585.07-.395-.02-.803-.248-1.133-1.137-1.396-2.33-2.74-3.592-4.198-.993 1.63-1.977 3.238-3.038 4.973-1.175-1.886-2.254-3.63-3.353-5.404-1.204 1.496-2.312 2.817-3.344 4.19-.26.355-.382.792-.343 1.23 1.22 5.734 3.608 11.155 7.01 15.928zm-29.815-54.59c-1.433-1.136-2.665-2.204-4.003-3.126-.535-.37-1.186-.536-1.834-.466-5.493 1.015-10.346 3.527-14.97 6.568-.148.137-.283.29-.4.453 4.843 3.107 9.772 5.732 15.4 6.825.35.062.714-.014 1.012-.212 1.442-1.146 2.846-2.352 4.365-3.623-1.67-1.022-3.295-2.017-5.015-3.067 1.94-1.19 3.66-2.254 5.445-3.35zm33.14-26.516c1.108-1.403 1.997-2.668 3.038-3.786.636-.62.862-1.546.584-2.388-1.28-5.204-3.474-10.14-6.477-14.58-.14-.265-.252-.543-.335-.83-3.32 4.747-5.707 10.084-7.03 15.724-.048.396.062.794.305 1.11 1.127 1.357 2.302 2.666 3.554 4.09.985-1.588 1.978-3.206 3.03-4.9 1.164 1.944 2.215 3.69 3.333 5.56zm47.842 29.85c-5.006-3.13-9.897-5.844-15.524-6.91-.35-.055-.71.028-1.002.233-1.395 1.147-2.75 2.342-4.203 3.603 1.624 1.015 3.248 2.022 4.94 3.08-1.912 1.183-3.64 2.248-5.4 3.337 1.53 1.226 2.886 2.352 4.29 3.416.328.222.726.315 1.118.26 5.723-1.056 10.7-3.826 15.782-7.018zm-27.828-19.307c1.777-.116 3.267-.14 4.73-.346.603-.09 1.15-.408 1.527-.89 2.236-3.328 3.956-6.977 5.1-10.82.403-1.403.718-2.836 1.09-4.34-5.496.946-10.735 3.03-15.38 6.115-.44.243-.788.622-.994 1.08-.286 1.682-.43 3.39-.64 5.197l5.914-1.433c-.478 1.936-.89 3.598-1.347 5.435zm-4.204 42.693c.153 1.774.21 3.3.44 4.804.083.603.403 1.147.888 1.514 2.234 1.325 4.547 2.51 6.927 3.544 2.627 1.065 5.407 1.778 8.388 2.732-1.366-5.97-3.24-11.273-6.65-15.922-.157-.28-.402-.5-.696-.624-1.72-.24-3.46-.41-5.284-.613.496 2.007.955 3.87 1.452 5.894l-5.465-1.33zm-43.848 1.393c.487-1.975.898-3.635 1.337-5.45-1.662.108-3.2.134-4.7.34-.603.096-1.147.42-1.52.904-2.278 3.41-4.027 7.146-5.186 11.08-.383 1.314-.64 2.66-.984 4.118 5.448-1 10.64-3.08 15.275-6.114.485-.254.87-.665 1.09-1.166.305-1.676.43-3.386.63-5.18l-5.942 1.47zm5.426-48.187c-.123-1.91-.21-3.58-.362-5.237-.075-.353-.28-.665-.573-.875-4.68-3.114-9.952-5.232-15.486-6.222 1.317 5.79 3.218 11.13 6.677 15.81.178.26.44.454.745.546 1.643.243 3.296.423 5.025.635-.488-2.02-.946-3.918-1.452-5.995l5.426 1.338zm36.427 15.966c2.732.652 5.646 1.376 8.588 2.02.448.003.885-.142 1.242-.412 3.562-2.242 6.614-5.205 8.96-8.698.132-.242.235-.5.306-.765-4.518-.6-8.913-.854-13.288.21-.53.095-1.013.36-1.376.758-1.548 2.305-3.02 4.667-4.433 6.886zM85.763 64.554c-.803 4.798-.984 9.324.22 13.812.208.533.58.987 1.06 1.298 2.035 1.45 4.117 2.84 6.18 4.245.135.087.306.112.154.06.707-2.848 1.413-5.62 2.054-8.407.1-.525.016-1.07-.238-1.54-2.322-3.86-5.646-6.724-9.43-9.468zm30.102 72.884c.945-4.688.854-9.525-.268-14.174-.19-.4-.504-.728-.898-.932-1.634-1.07-3.306-2.074-4.93-3.153-.538-.39-1.052-.813-1.538-1.266-.63 2.713-1.185 5.392-1.92 8.018-.263.733-.156 1.548.286 2.19 2.495 3.644 5.635 6.802 9.267 9.316zM64.44 116.104c3.903.662 7.88.745 11.808.245 1.825-.253 3.162-.837 3.85-2.73.5-1.052 1.147-2.03 1.92-2.903.62-.84 1.328-1.624 1.872-2.27-2.97-.723-5.923-1.45-8.874-2.144-.27-.035-.544.026-.774.172-3.95 2.43-7.3 5.723-9.802 9.63zm72.203-.2c-2.575-3.74-5.974-6.84-9.936-9.057-.423-.132-.876-.132-1.3 0-2.14.392-4.27.82-6.41 1.233-.448.088-.906.16-1.222.216 1.48 2.222 2.847 4.322 4.26 6.383.285.4.685.702 1.147.866 4.39 1.217 9.012 1.34 13.46.358zM85.897 136.9c3.084-2.264 5.817-4.97 8.11-8.034 1.112-1.258 1.425-3.033.812-4.596-.563-2.025-.97-4.09-1.224-6.176-2.13 1.38-4.308 2.783-6.467 4.214-.263.177-.46.433-.565.73-1.32 4.503-1.548 9.254-.668 13.862zm-20.903-50.86c2.62 3.815 6.053 7.003 10.05 9.336.247.108.523.13.784.06 2.694-.58 5.388-1.182 7.976-1.757-1.25-1.833-2.674-3.768-3.916-5.812-.39-.725-1.078-1.244-1.882-1.42-4.268-.995-8.69-1.132-13.012-.405zm43.285-2.217c1.948-1.286 4.04-2.636 6.094-4.05.394-.292.682-.704.822-1.174 1.094-3.86 1.37-7.905.812-11.878-.067-.477-.162-.955-.277-1.617-3.658 2.844-6.83 5.81-8.98 9.712-.21.398-.284.854-.21 1.298.555 2.622 1.176 5.236 1.74 7.706v.005z" fill="#FFF"/></g></svg>