<svg xmlns="http://www.w3.org/2000/svg" width="110" height="110" viewBox="0 0 284 284"><title>Fichier 1</title><g data-name="Calque 1"><path d="M139.38 76.39l3.17-5.13 3.45 5.82c1.16-1.47 2.09-2.79 3.18-4a2.43 2.43 0 0 0 .61-2.5A47.5 47.5 0 0 0 143 55.36a4.55 4.55 0 0 1-.35-.87 47.76 47.76 0 0 0-7.36 16.46 1.59 1.59 0 0 0 .32 1.16c1.23 1.42 2.46 2.79 3.77 4.28zM128.14 86c2.13 1.52 4.31 3 6.47 4.44.14.09.32.12.16.06.74-3 1.48-5.88 2.15-8.8a2.43 2.43 0 0 0-.25-1.61c-2.43-4-5.91-7-9.87-9.91-.84 5-1 9.76.23 14.46a2.86 2.86 0 0 0 1.11 1.36zM116.84 124.39c1.91-.27 3.31-.88 4-2.86a13 13 0 0 1 2-3c.65-.88 1.39-1.7 2-2.38-3.11-.76-6.2-1.52-9.29-2.24a1.22 1.22 0 0 0-.81.18 32.26 32.26 0 0 0-10.26 10.08 42.12 42.12 0 0 0 12.36.22zM112.95 88c1.72.25 3.45.44 5.26.66-.51-2.11-1-4.1-1.52-6.28l5.68 1.4c-.13-2-.22-3.75-.38-5.48a1.51 1.51 0 0 0-.6-.92 42.88 42.88 0 0 0-16.21-6.51c1.38 6.06 3.37 11.65 7 16.55a1.45 1.45 0 0 0 .77.58zM106.33 115.35c1.51-1.2 3-2.46 4.57-3.79l-5.25-3.21 5.7-3.51c-1.5-1.19-2.79-2.31-4.19-3.27a2.83 2.83 0 0 0-1.92-.49c-5.75 1.06-10.83 3.69-15.67 6.88a3.08 3.08 0 0 0-.42.47c5.07 3.25 10.23 6 16.12 7.14a1.46 1.46 0 0 0 1.06-.22zM115.58 102.44a1.26 1.26 0 0 0 .82.06c2.82-.61 5.64-1.24 8.35-1.84-1.31-1.92-2.8-3.95-4.1-6.09a3 3 0 0 0-2-1.49 34.67 34.67 0 0 0-13.62-.42 32.86 32.86 0 0 0 10.55 9.78zM148.55 82.28c.58 2.74 1.23 5.48 1.82 8.07 2-1.35 4.23-2.76 6.38-4.24a2.38 2.38 0 0 0 .86-1.23 30.18 30.18 0 0 0 .85-12.43c-.07-.5-.17-1-.29-1.69-3.83 3-7.15 6.08-9.4 10.17a2.14 2.14 0 0 0-.22 1.35zM139 184.25a6 6 0 0 0-2.25.42 5.89 5.89 0 0 0-1.85 1.19 6.14 6.14 0 0 0-1.32 1.83 6.47 6.47 0 0 0-.6 2.37h12.12a6.24 6.24 0 0 0-1.94-4.23 5.93 5.93 0 0 0-4.16-1.58zM86.85 192.57a6.38 6.38 0 0 0-3.79 1.05 3.16 3.16 0 0 0-1.47 2.66 3.21 3.21 0 0 0 1.16 2.53 4.2 4.2 0 0 0 2.86 1 7.79 7.79 0 0 0 2.88-.54 5.23 5.23 0 0 0 2.12-1.43 2.16 2.16 0 0 0 1-1.7v-2.69a14.67 14.67 0 0 0-2.32-.65 12.52 12.52 0 0 0-2.44-.23zM167 88.12c1.86-.12 3.42-.15 4.95-.36a2.5 2.5 0 0 0 1.6-.93 41.65 41.65 0 0 0 5.34-11.33c.42-1.47.75-3 1.14-4.54a41.94 41.94 0 0 0-16.1 6.4 2.43 2.43 0 0 0-1 1.13c-.3 1.76-.45 3.55-.67 5.44l6.19-1.5c-.55 2.02-.98 3.76-1.45 5.69zM166.58 92.54a2.55 2.55 0 0 0-1.44.79c-1.62 2.41-3.16 4.89-4.64 7.21 2.86.68 5.91 1.44 9 2.11a2.13 2.13 0 0 0 1.3-.43 31.52 31.52 0 0 0 9.38-9.1 3.72 3.72 0 0 0 .32-.8c-4.74-.63-9.34-.9-13.92.22zM169.66 114.45a2.28 2.28 0 0 0-1.36 0c-2.24.41-4.47.86-6.71 1.29l-1.28.22c1.55 2.33 3 4.52 4.46 6.68a2.49 2.49 0 0 0 1.2.91 29.18 29.18 0 0 0 14.09.38 31 31 0 0 0-10.4-9.48z"/><path d="M150.44 111.86c7.14-.59 14.44.78 20.89-3.54-6.47-4.26-13.77-2.95-20.9-3.52 4.51-5.29 10.29-9.35 12.21-16.5-7.29 1.76-11.27 7.73-16.58 12.16-.49-7.21.81-14.46-3.49-20.82-4.33 6.39-3 13.7-3.52 20.83-5.31-4.52-9.29-10.41-16.55-12.15a21 21 0 0 0 5.11 8.93c2.28 2.51 4.66 4.92 7.17 7.57-7.23.57-14.52-.74-21 3.53 6.47 4.28 13.77 2.94 20.89 3.53-4.51 5.28-10.29 9.35-12.21 16.51 7.28-1.79 11.27-7.69 16.58-12.19.49 7.23-.8 14.49 3.5 20.84 4.33-6.39 3-13.7 3.52-20.83 5.3 4.51 9.29 10.41 16.55 12.15-1.9-7.16-7.71-11.22-12.17-16.5zM172.32 128.67c-1.8-.25-3.62-.43-5.53-.64.52 2.1 1 4.05 1.52 6.17l-5.72-1.39c.16 1.86.22 3.46.46 5a2.4 2.4 0 0 0 .93 1.59 65 65 0 0 0 7.25 3.71c2.77 1.14 5.66 1.89 8.77 2.89-1.43-6.25-3.39-11.8-7-16.67a1.52 1.52 0 0 0-.68-.66zM179.87 101.1a1.43 1.43 0 0 0-1.05.24c-1.46 1.2-2.88 2.45-4.4 3.77l5.17 3.22-5.65 3.49c1.6 1.28 3 2.46 4.49 3.58a1.67 1.67 0 0 0 1.17.27c6-1.1 11.2-4 16.52-7.35-5.24-3.27-10.36-6.11-16.25-7.22zM118.09 128.56c-1.74.11-3.35.14-4.92.35a2.51 2.51 0 0 0-1.59.95 42.5 42.5 0 0 0-5.43 11.6c-.4 1.37-.67 2.78-1 4.31a43.52 43.52 0 0 0 16-6.4 2.53 2.53 0 0 0 1.14-1.22c.32-1.76.45-3.54.66-5.42l-6.22 1.54c.47-2.07.9-3.81 1.36-5.71z"/><path d="M279.14 152.82c.28-3.63 4.79-7.12 4.79-10.81s-4.51-7.18-4.79-10.8 3.62-7.83 3.06-11.42-5.58-6.38-6.41-9.92 2.35-8.29 1.23-11.75-6.51-5.42-7.9-8.79 1-8.55-.64-11.8-7.27-4.33-9.18-7.43-.33-8.61-2.47-11.56-7.86-3.12-10.24-5.91-1.66-8.44-4.24-11-8.24-1.87-11-4.25-2.94-8.07-5.9-10.23-8.43-.56-11.56-2.48-4.16-7.52-7.43-9.18-8.4.77-11.8-.64-5.29-6.77-8.78-7.9-8.2 2.05-11.78 1.2-6.29-5.85-9.92-6.42-7.74 3.35-11.42 3.07S145.66 0 142 0s-7.19 4.52-10.81 4.8-7.82-3.64-11.41-3.07-6.39 5.57-9.92 6.42-8.29-2.36-11.76-1.24-5.42 6.51-8.78 7.91-8.55-1-11.8.63-4.3 7.27-7.43 9.19-8.61.31-11.56 2.47-3.14 7.89-5.92 10.24-8.44 1.65-11 4.24-1.87 8.24-4.24 11-8.09 2.95-10.24 5.91-.58 8.5-2.5 11.59-7.52 4.17-9.18 7.43.77 8.41-.63 11.81S8 94.62 6.91 98.11s2.09 8.18 1.24 11.76-5.84 6.28-6.42 9.92 3.35 7.74 3.07 11.42S0 138.32 0 142s4.51 7.18 4.79 10.81-3.63 7.82-3.06 11.41 5.57 6.38 6.42 9.92-2.36 8.29-1.23 11.76 6.5 5.41 7.9 8.78-1 8.55.63 11.8 7.26 4.32 9.18 7.44.32 8.6 2.47 11.56 7.86 3.11 10.23 5.9 1.66 8.46 4.25 11 8.24 1.87 11 4.24 2.94 8.07 5.9 10.23 8.45.57 11.56 2.48 4.17 7.53 7.43 9.19 8.43-.77 11.8.63 5.29 6.77 8.79 7.91 8.17-2.09 11.75-1.24 6.28 5.85 9.92 6.42 7.73-3.35 11.41-3.06S138.28 284 142 284s7.17-4.51 10.79-4.79 7.83 3.63 11.42 3.06 6.38-5.57 9.92-6.42 8.28 2.36 11.74 1.24 5.42-6.51 8.79-7.91 8.54 1 11.8-.63 4.31-7.27 7.43-9.19 8.6-.32 11.55-2.47 3.12-7.86 5.91-10.24 8.45-1.65 11-4.24 1.86-8.25 4.23-11 8.09-2.95 10.24-5.91.56-8.43 2.47-11.56 7.52-4.16 9.19-7.43-.77-8.41.63-11.8 6.77-5.29 7.91-8.79-2.1-8.18-1.23-11.76 5.84-6.28 6.41-9.92-3.35-7.75-3.06-11.42zM75.73 177.4H60.6v8.19h12.59v5H60.6v13.16h-6.16V172h21.29zm23.44 26.36a13.85 13.85 0 0 1-1.58.25q-.74.07-1.27.07a4.15 4.15 0 0 1-2.59-.78 3.22 3.22 0 0 1-1.12-2l-.13-1.3a10.38 10.38 0 0 1-3.79 3.13 10.89 10.89 0 0 1-4.78 1.07 8.85 8.85 0 0 1-3.17-.56 7.61 7.61 0 0 1-2.54-1.57 7.3 7.3 0 0 1-1.67-2.35 7.13 7.13 0 0 1-.6-3 6.52 6.52 0 0 1 .74-3.07 7 7 0 0 1 2.05-2.39 10.18 10.18 0 0 1 3.15-1.54 13.69 13.69 0 0 1 4-.56 17.25 17.25 0 0 1 3.06.27 12.43 12.43 0 0 1 2.66.76v-1.29a4.71 4.71 0 0 0-1.32-3.58 5.47 5.47 0 0 0-3.91-1.25 10.32 10.32 0 0 0-3.66.67 17 17 0 0 0-3.66 2l-1.83-3.8a17.24 17.24 0 0 1 9.73-3q5 0 7.83 2.48t2.79 7.18v7.3a2 2 0 0 0 .36 1.34 1.73 1.73 0 0 0 1.25.45zm20.09 0l-6.79-10.16-3.21 3.18v7h-6v-32.69h6v19.83l9.37-10.56H125l-8.75 9.94 9.37 13.47zm32-10.7a4.7 4.7 0 0 1-.11.9h-18.1a7 7 0 0 0 .67 2.46 6.09 6.09 0 0 0 1.38 1.84 6 6 0 0 0 1.92 1.16 6.29 6.29 0 0 0 2.23.4 6.88 6.88 0 0 0 3.37-.87 4.61 4.61 0 0 0 2.16-2.3l5.13 1.43a10.45 10.45 0 0 1-4.13 4.41 12.76 12.76 0 0 1-6.76 1.72 13 13 0 0 1-5.09-1 11.5 11.5 0 0 1-6.36-6.47 12.38 12.38 0 0 1-.87-4.61 13.08 13.08 0 0 1 .85-4.72 11.52 11.52 0 0 1 2.46-3.89 11.72 11.72 0 0 1 3.91-2.66 13 13 0 0 1 5.16-1 12.67 12.67 0 0 1 5.11 1 11.77 11.77 0 0 1 3.84 2.64 11.23 11.23 0 0 1 2.41 3.85 12.87 12.87 0 0 1 .83 4.57q-.01.61-.03 1.14zm21.27 9.44a12.45 12.45 0 0 1-6.65 1.7 12.84 12.84 0 0 1-5.13-1 11.64 11.64 0 0 1-6.36-6.56 12.54 12.54 0 0 1-.87-4.63 12.8 12.8 0 0 1 .85-4.66 11.36 11.36 0 0 1 2.46-3.85 12 12 0 0 1 3.88-2.64 12.82 12.82 0 0 1 5.13-1 12.28 12.28 0 0 1 6.54 1.66 10.57 10.57 0 0 1 4 4.34l-5.85 1.79a5.27 5.27 0 0 0-2-2 5.61 5.61 0 0 0-2.77-.69 5.69 5.69 0 0 0-2.41.51 5.93 5.93 0 0 0-1.94 1.43 6.64 6.64 0 0 0-1.29 2.22 8.38 8.38 0 0 0-.47 2.86 8 8 0 0 0 .49 2.86 7.2 7.2 0 0 0 1.32 2.24 5.78 5.78 0 0 0 1.94 1.45 5.57 5.57 0 0 0 2.37.51 5.72 5.72 0 0 0 3-.81 4.51 4.51 0 0 0 1.9-2l5.85 1.79a9.86 9.86 0 0 1-4.01 4.49zm13.57 1.25h-6v-23.44h6zm0-26.72h-6v-6h6zm1.85-49.91l-10.16 1.42c4.88 7 6 15.15 8.21 23.15-7.89-2.17-15.79-3.51-22.84-7.84-.51 3.49-1 6.79-1.52 10.27l-8-5.85c-2 8.31-6.94 14.85-11 22.1-4.05-7.31-9.09-13.9-10.94-22.35l-7.68 5.75c-.47-3.42-.92-6.63-1.4-10-7.09 4.59-15.14 5.91-23.15 8.09 2.26-7.89 3.29-15.91 8.13-22.85l-10.44-1.57c2.05-2.72 4-5.24 6.07-8.06-8.42-1.82-15-6.89-22.3-11 3.62-2.21 7-4.53 10.6-6.39S99.06 98.72 103 97l-5.5-7.37 10.16-1.41c-4.84-7-6-15.06-8.22-23.12 7.89 2.15 15.82 3.45 22.84 7.92.52-3.48 1-6.78 1.52-10.25l8 5.86c1.95-8.31 6.95-14.85 10.95-22.1 4.07 7.33 9.12 13.94 11 22.35l7.66-5.74q.72 5.11 1.34 9.58c3.79-1.52 7.49-3.22 11.32-4.49s7.77-2.08 11.88-3.15C183.67 73 182.51 81 177.9 88l10.39 1.54-5.9 8c8.31 1.83 14.83 6.83 22.12 10.93-7.32 4-13.83 9.2-22.4 10.84zm14.56 76.5a12.6 12.6 0 0 1-3.68.54 8.48 8.48 0 0 1-2.34-.31 5.11 5.11 0 0 1-1.92-1 4.92 4.92 0 0 1-1.32-1.79 6.48 6.48 0 0 1-.49-2.66v-13.48h-3v-4.61h3v-7.61h6v7.61h5v4.61h-5v11.46a2.1 2.1 0 0 0 .67 1.77 2.56 2.56 0 0 0 1.61.51 5.49 5.49 0 0 0 1.83-.31q.89-.31 1.43-.54l1.21 4.75a26.42 26.42 0 0 1-3.02 1.07zm17.07 4.79a8.24 8.24 0 0 1-3 4.14 8.07 8.07 0 0 1-4.78 1.45 10.82 10.82 0 0 1-3.17-.49v-5.19a11.07 11.07 0 0 0 1.47.31 8.93 8.93 0 0 0 1.16.09 2.46 2.46 0 0 0 1-.2 2.42 2.42 0 0 0 .87-.74 7 7 0 0 0 .85-1.5 25.41 25.41 0 0 0 .92-2.53l-9.29-23.45h6.16l6.38 18.26 5.62-18.26h5.63z"/><path d="M136.28 132.69a43.92 43.92 0 0 1-1.28-6.47c-2.23 1.44-4.51 2.91-6.77 4.41a1.53 1.53 0 0 0-.59.77 31 31 0 0 0-.7 14.51 40.65 40.65 0 0 0 8.49-8.41 4.68 4.68 0 0 0 .85-4.81zM157.09 130.66c-1.71-1.12-3.46-2.17-5.16-3.3a17.12 17.12 0 0 1-1.61-1.33c-.66 2.84-1.24 5.64-2 8.39a2.53 2.53 0 0 0 .3 2.29 37.89 37.89 0 0 0 9.7 9.75 34.31 34.31 0 0 0-.28-14.84 2.11 2.11 0 0 0-.95-.96zM145.77 140.09l-3.18 5.21-3.51-5.66c-1.26 1.57-2.42 2.95-3.5 4.39a1.89 1.89 0 0 0-.36 1.29 44.78 44.78 0 0 0 7.34 16.68 47.26 47.26 0 0 0 7.23-16.31 1.59 1.59 0 0 0-.26-1.19c-1.19-1.5-2.44-2.89-3.76-4.41z"/></g></svg>