<svg xmlns="http://www.w3.org/2000/svg" width="46" height="46" viewBox="0 0 46 46"><defs><style>.cls-1 { fill: #3f3e3e; fill-rule: evenodd; }</style></defs><path id="loupe" class="cls-1" d="M18.29 4.84a13.263 13.263 0 0 1 4.49.782 13.457 13.457 0 0 1 7.68 6.96 13.613 13.613 0 0 1-12.17 19.46A13.48 13.48 0 0 1 6.13 24.3 13.6 13.6 0 0 1 18.29 4.84m0-4.843a18.46 18.46 0 0 0-6.09 35.828 18.09 18.09 0 0 0 6.09 1.06 18.3 18.3 0 0 0 17.24-12.3 18.487 18.487 0 0 0-11.15-23.53 18.042 18.042 0 0 0-6.09-1.06zm25.3 46.008a2.4 2.4 0 0 1-1.7-.71l-9.42-9.5a2.45 2.45 0 0 1 0-3.423 2.393 2.393 0 0 1 3.4 0l9.42 9.5a2.43 2.43 0 0 1 0 3.424 2.38 2.38 0 0 1-1.7.71z"/></svg>