<svg width="55" height="80" viewBox="0 0 55 80" xmlns="http://www.w3.org/2000/svg"><path d="M27.383 79.976c-2.487-3.358-4.965-6.59-7.318-9.92C14.057 61.57 8.408 52.85 4.122 43.323 2.512 39.73.975 36.09.372 32.153c-1.3-8.47.796-15.983 6.29-22.537 4.17-5.05 10.076-8.357 16.56-9.275 8.423-1.29 16.147.824 22.4 6.616 8.66 8.017 11.297 18.004 7.848 29.426-2.985 9.897-8.055 18.77-13.842 27.212-3.612 5.26-7.582 10.27-11.394 15.382-.23.31-.502.59-.85 1z" fill-rule="nonzero" fill="#FFF" fill-opacity=".6"/></svg>