<svg xmlns="http://www.w3.org/2000/svg" viewBox="0 0 24.97 31"><title>panier</title><g data-name="Calque 1"><path d="M0 8.47h4.17v2H2.1V27.28a1.4 1.4 0 0 0 1.57 1.62h17.59c1.12 0 1.62-.51 1.62-1.62V10.53h-2.09V8.47H25V28c0 .11-.07.22-.1.33a3.41 3.41 0 0 1-1.93 2.32A9.56 9.56 0 0 1 22 31H3l-.48-.16A3.4 3.4 0 0 1 .17 28.6L0 28.12z"/><path d="M13.27 0l.93.21A7.09 7.09 0 0 1 19.55 7v4.63a.59.59 0 0 0 .28.57 2.21 2.21 0 0 1 .83 2.47 2.25 2.25 0 0 1-4.28.07 2.2 2.2 0 0 1 .74-2.5.79.79 0 0 0 .35-.76V6.99a5 5 0 0 0-9.73-1.38 5.92 5.92 0 0 0-.22 1.55v4.49a.57.57 0 0 0 .27.53 2.19 2.19 0 0 1 .82 2.51 2.24 2.24 0 0 1-4.26 0 2.2 2.2 0 0 1 .81-2.52.6.6 0 0 0 .28-.57V7.32A7 7 0 0 1 11.55.07.69.69 0 0 0 11.7 0zm5.23 14.58a.59.59 0 1 0 0-1.18.59.59 0 0 0-.61.6.6.6 0 0 0 .61.58zm-12 0a.59.59 0 1 0-.6-.56.61.61 0 0 0 .57.56z"/><path d="M16.2 8.46v2H8.67v-2z"/></g></svg>